<svg width="16" height="16" viewBox="0 0 16 16" fill="none" xmlns="http://www.w3.org/2000/svg">
<g id="comment 1" clip-path="url(#clip0_1_23895)">
<g id="Speech Bubble 48">
<g id="Group">
<path id="Vector" d="M2.32892 15.0431H1.19521L1.99688 14.2414C2.42913 13.8092 2.69906 13.247 2.77163 12.6371C1.64367 11.8969 0.818867 10.923 0.377348 9.80618C-0.0638584 8.69019 -0.119303 7.46168 0.217026 6.25343C0.62057 4.80365 1.56707 3.48222 2.88211 2.53253C4.31113 1.50057 6.09011 0.955078 8.02674 0.955078C10.4664 0.955078 12.5227 1.656 13.9734 2.98203C15.2803 4.17667 16 5.78806 16 7.51941C16 8.36056 15.8287 9.17902 15.491 9.95204C15.1414 10.752 14.6296 11.4642 13.9697 12.069C12.5171 13.4002 10.462 14.1039 8.02671 14.1039C7.12267 14.1039 6.1793 13.9832 5.33706 13.7618C4.53983 14.5796 3.45953 15.0431 2.32892 15.0431ZM8.02674 1.89428C4.14349 1.89428 1.7607 4.21013 1.12182 6.50529C0.518103 8.67423 1.40806 10.7237 3.50248 11.9876L3.7365 12.1288L3.7293 12.402C3.71502 12.9428 3.5861 13.4637 3.35534 13.9345C3.91726 13.7444 4.42716 13.3997 4.82644 12.928L5.02499 12.6934L5.31943 12.7815C6.14571 13.0286 7.10717 13.1647 8.02674 13.1647C12.8596 13.1647 15.0608 10.2384 15.0608 7.51941C15.0608 6.05501 14.4496 4.68979 13.3397 3.67526C12.0651 2.51015 10.2279 1.89428 8.02674 1.89428Z" fill="white"/>
</g>
</g>
</g>
<defs>
<clipPath id="clip0_1_23895">
<rect width="16" height="16" fill="white"/>
</clipPath>
</defs>
</svg>
